<?xml version="1.0" encoding="UTF-8" standalone="no"?>
<!-- Created with Inkscape (http://www.inkscape.org/) -->

<svg
   width="156.9395mm"
   height="28.079077mm"
   viewBox="0 0 156.9395 28.079077"
   version="1.1"
   id="svg1"
   inkscape:version="1.4.2 (ebf0e940d0, 2025-05-08)"
   sodipodi:docname="Logo of SAP Concur (2020).svg"
   xmlns:inkscape="http://www.inkscape.org/namespaces/inkscape"
   xmlns:sodipodi="http://sodipodi.sourceforge.net/DTD/sodipodi-0.dtd"
   xmlns="http://www.w3.org/2000/svg"
   xmlns:svg="http://www.w3.org/2000/svg">
  <sodipodi:namedview
     id="namedview1"
     pagecolor="#ffffff"
     bordercolor="#000000"
     borderopacity="0.25"
     inkscape:showpageshadow="2"
     inkscape:pageopacity="0.0"
     inkscape:pagecheckerboard="0"
     inkscape:deskcolor="#d1d1d1"
     inkscape:document-units="mm"
     inkscape:zoom="0.23231366"
     inkscape:cx="316.3826"
     inkscape:cy="249.66246"
     inkscape:window-width="1870"
     inkscape:window-height="1011"
     inkscape:window-x="0"
     inkscape:window-y="0"
     inkscape:window-maximized="1"
     inkscape:current-layer="layer1" />
  <defs
     id="defs1">
    <clipPath
       id="clip-11">
      <path
         clip-rule="nonzero"
         d="M 28.347656,31 H 101 V 42 H 28.347656 Z m 0,0"
         id="path54" />
    </clipPath>
    <clipPath
       id="clip-12">
      <path
         clip-rule="nonzero"
         d="m 105,28.347656 h 16.72656 V 45.054688 H 105 Z m 0,0"
         id="path55" />
    </clipPath>
  </defs>
  <g
     inkscape:label="Layer 1"
     inkscape:groupmode="layer"
     id="layer1"
     transform="translate(-18.861251,-138.79125)">
    <g
       clip-path="url(#clip-11)"
       id="g159"
       transform="matrix(1.6806741,0,0,1.6806741,-28.78192,91.148083)">
      <path
         fill-rule="nonzero"
         fill="#007bc4"
         fill-opacity="1"
         d="m 96.007812,41.324219 v -6.679688 h 2.019532 v 1.117188 h 0.01172 c 0.363282,-0.5625 1,-1.253907 2.253906,-1.253907 h 0.0625 l -0.0234,1.792969 c -0.0742,-0.01172 -0.40234,-0.03906 -0.52734,-0.03906 -0.800782,0 -1.402344,0.425781 -1.777344,0.914062 v 4.148438 z m -7.722656,-1.804688 v -4.875 h 2.015625 v 4.285157 c 0,0.601562 0.226563,0.929687 0.792969,0.929687 0.539062,0 1,-0.289063 1.453125,-0.675781 V 34.644531 H 94.5625 v 6.679688 h -2.015625 v -1.039063 c -0.402344,0.511719 -1.144531,1.175782 -2.308594,1.175782 -1.140625,0 -1.953125,-0.5625 -1.953125,-1.941407 m -7.335937,-1.527343 c 0,-2.671876 1.894531,-3.484376 3.371093,-3.484376 1.820313,0 2.519532,0.964844 2.910157,2.042969 l -1.691407,0.5625 c -0.265624,-0.851562 -0.652343,-1.128906 -1.242187,-1.128906 -0.816406,0 -1.328125,0.691406 -1.328125,2.019531 0,1.191406 0.375,2.042969 1.304688,2.042969 0.539062,0 1.027343,-0.289063 1.3125,-1.191406 l 1.667968,0.578125 C 86.828125,40.472656 86,41.460938 84.234375,41.460938 c -1.566406,0 -3.285156,-0.875 -3.285156,-3.46875 m -7.242188,3.332031 v -6.679688 h 2.019531 v 1.054688 c 0.398438,-0.527344 1.140626,-1.191407 2.304688,-1.191407 1.125,0 1.941406,0.5625 1.941406,1.941407 v 4.875 H 77.96875 v -4.234375 c 0,-0.601563 -0.226562,-0.914063 -0.789062,-0.914063 -0.539063,0 -1.003907,0.273438 -1.453126,0.664063 v 4.484375 z m -3,-3.320313 c 0,-1.113281 -0.390625,-2.019531 -1.394531,-2.019531 -0.960938,0 -1.402344,0.816406 -1.402344,2.019531 0,1.113282 0.378906,2.042969 1.402344,2.042969 0.953125,0 1.394531,-0.828125 1.394531,-2.042969 m -4.8125,-0.01172 c 0,-2.621094 1.792969,-3.484376 3.417969,-3.484376 1.617188,0 3.410156,0.863282 3.410156,3.484376 0,2.59375 -1.792968,3.46875 -3.410156,3.46875 -1.613281,0 -3.417969,-0.875 -3.417969,-3.46875 m -8.808593,-1.316407 c 0,-3.222656 1.863281,-4.800781 4.210937,-4.800781 2.339844,0 3.355469,1.253906 3.757813,2.921875 l -1.929688,0.5625 c -0.300781,-1.066406 -0.753906,-1.792969 -1.84375,-1.792969 -1.402344,0 -2.15625,1.191406 -2.15625,3.109375 0,1.953125 0.777344,3.183594 2.183594,3.183594 1.089844,0 1.625,-0.691406 1.953125,-1.957031 l 1.917969,0.425781 C 64.726562,40.195312 63.625,41.5 61.296875,41.5 58.875,41.5 57.085938,39.945312 57.085938,36.675781 m -9.136719,-0.214843 h 1.390625 c 1.265625,0 1.742187,-0.484376 1.742187,-1.375 0,-0.867188 -0.464843,-1.355469 -1.742187,-1.355469 h -1.390625 z m -2.035157,4.878906 V 32.0625 h 3.375 c 1.980469,0 3.785157,0.527344 3.785157,2.972656 0,2.492188 -1.957031,3.007813 -3.8125,3.007813 h -1.3125 v 3.296875 z m -6.441406,-3.546875 h 2.183594 l -1.066406,-3.160157 h -0.02344 z m -3.09375,3.546875 3.285156,-9.3125 h 1.941407 l 3.285156,9.3125 h -2.066406 l -0.691407,-2.070313 h -3.160156 l -0.714844,2.070313 z m -8.03125,-2.105469 1.542969,-0.914063 c 0.511719,1.011719 1.4375,1.578126 2.503906,1.578126 0.941407,0 1.617188,-0.351563 1.617188,-1.066407 0,-0.703125 -0.664063,-1.003906 -1.878907,-1.339843 -1.65625,-0.464844 -3.386718,-0.890626 -3.386718,-2.835938 0,-1.726562 1.355468,-2.769531 3.347656,-2.769531 1.90625,0 3.035156,0.917969 3.6875,1.90625 l -1.417969,1.078125 c -0.492187,-0.789063 -1.378906,-1.316406 -2.28125,-1.316406 -0.863281,0 -1.339843,0.375 -1.339843,0.929687 0,0.738281 0.6875,1 1.902343,1.339844 1.628907,0.4375 3.359375,0.953125 3.359375,2.871093 0,1.492188 -1.125,2.820313 -3.707031,2.820313 -2.007813,0 -3.261719,-0.953125 -3.949219,-2.28125"
         id="path158" />
    </g>
    <path
       fill-rule="nonzero"
       fill="#fbba00"
       fill-opacity="1"
       d="m 161.0883,157.16705 c -2.36343,0 -4.28704,-1.92356 -4.28704,-4.29361 0,-2.36343 1.92361,-4.28699 4.28704,-4.28699 1.18174,0 2.25843,0.47922 3.03307,1.26049 l 2.22561,-2.2256 c -1.34587,-1.35239 -3.20382,-2.18616 -5.25868,-2.18616 -4.10324,0 -7.43831,3.34165 -7.43831,7.43826 0,4.10324 3.33507,7.44488 7.43831,7.44488 2.05486,0 3.91281,-0.83376 5.25868,-2.1862 l -2.22561,-2.22556 c -0.77464,0.78127 -1.85133,1.26049 -3.03307,1.26049"
       id="path159"
       style="stroke-width:1.68068" />
    <path
       fill-rule="nonzero"
       fill="#fbba00"
       fill-opacity="1"
       d="m 167.34487,150.99586 c -1.03729,0 -1.87763,0.84029 -1.87763,1.87758 0,1.03729 0.84034,1.88421 1.87763,1.88421 1.03729,0 1.87763,-0.84692 1.87763,-1.88421 0,-1.03729 -0.84034,-1.87758 -1.87763,-1.87758"
       id="path160"
       style="stroke-width:1.68068" />
    <g
       clip-path="url(#clip-12)"
       id="g161"
       transform="matrix(1.6806741,0,0,1.6806741,-28.78192,91.148083)">
      <path
         fill-rule="nonzero"
         fill="#fbba00"
         fill-opacity="1"
         d="M 106.89063,43.1875 V 30.21875 h 12.96875 V 43.1875 Z m -1.8711,1.867188 h 16.70703 V 28.347656 h -16.70703 z m 0,0"
         id="path161" />
    </g>
  </g>
</svg>
